<svg width="47" height="62" viewBox="0 0 47 62" fill="none" xmlns="http://www.w3.org/2000/svg">
  <path fill-rule="evenodd" clip-rule="evenodd" d="M17.7955 60.1124L15.9042 57.9057C15.403 57.321 14.9839 56.6708 14.6582 55.973L13.9041 54.357C12.5749 51.5086 11.8861 48.4035 11.8861 45.2603V44.4154C11.8861 42.8289 12.0352 41.2459 12.3315 39.6873L13.4271 33.9232C13.5902 33.0651 13.871 32.2336 14.2616 31.4524L14.5528 30.87C14.946 30.0836 15.4976 29.3871 16.1731 28.8242L16.401 28.6343C17.3991 27.8025 18.6572 27.3469 19.9565 27.3469C20.7808 27.3469 21.5948 27.5305 22.3395 27.8842L22.4509 27.9371C23.6606 28.5117 24.6476 29.4684 25.2597 30.6596L25.9923 32.0851C26.7797 33.6174 27.1904 35.3154 27.1904 37.0382V39.9328V45.9926C27.1904 48.6683 26.7591 51.3266 25.9129 53.8651L25.4036 55.3931L23.9736 58.2993C23.4527 59.358 23.9717 60.6341 25.0836 61.0286C25.2954 61.1038 25.5185 61.1422 25.7432 61.1422H34.1822H43.9708H44.0984C46.022 61.1422 47.4125 59.3035 46.8887 57.4527C46.8084 57.1689 46.6853 56.8991 46.5236 56.6525L44.9287 54.2195C43.1223 51.4638 41.9621 48.3355 41.5349 45.0683L40.8633 39.9328L38.1443 27.3469L36.5128 10.5659V6.6448C36.5128 6.00585 36.6714 5.37689 36.9743 4.81431L37.2863 4.23499C37.8094 3.26339 37.7205 2.07638 37.0584 1.19358C36.7036 0.72053 36.2097 0.370411 35.6458 0.192337L35.5156 0.151207C35.1983 0.0509943 34.8675 0 34.5347 0H27.1904L20.5093 0.466141L13.6729 0H9.71028C8.35838 0 7.1538 0.853566 6.70572 2.12905C6.58657 2.46821 6.5257 2.8251 6.5257 3.18458V7.53595V13.5181L5.67114 20.1994L3.88435 29.6776L2.40829 35.8152L1.00993 40.7097C0.339271 43.3408 0 46.0455 0 48.7607V51.3532V56.1583C0 56.7315 0.0988954 57.3005 0.292335 57.8401C1.00236 59.8208 2.87979 61.1422 4.98389 61.1422H6.5257H17.3218C17.6664 61.1422 17.9457 60.8629 17.9457 60.5183C17.9457 60.3694 17.8924 60.2254 17.7955 60.1124ZM14.1816 16.3983L14.1614 16.4669C14.049 16.8492 14.0269 17.2523 14.097 17.6446L14.1035 17.6812C14.1551 17.9702 14.2599 18.247 14.4125 18.4977L14.4502 18.5597C14.6252 18.8473 14.8676 19.0881 15.1563 19.2613C15.2454 19.3147 15.3383 19.3614 15.4343 19.401L15.4688 19.4152C15.7798 19.5432 16.113 19.6091 16.4493 19.6091H16.5837C16.8668 19.6091 17.1487 19.5722 17.4222 19.4993L19.3036 18.9976L21.3723 18.7055C22.1557 18.5949 22.9207 18.3801 23.6471 18.0667L24.2276 17.8163C24.4101 17.7376 24.5838 17.64 24.7459 17.5252C25.1859 17.2136 25.5284 16.7835 25.7337 16.285L25.834 16.0414C26.0881 15.4241 26.1733 14.7502 26.0808 14.0891L26.0349 13.7615C25.9815 13.3801 25.8841 13.0062 25.7445 12.6473L25.7089 12.5557C25.5168 12.0619 25.2582 11.5965 24.9403 11.1726L24.502 10.5883L23.8961 9.72604C23.6391 9.36021 23.327 9.03629 22.971 8.76574L22.9194 8.72651C22.6758 8.54134 22.4107 8.38624 22.1299 8.26456L22.0624 8.23532C21.6293 8.04766 21.1624 7.95083 20.6904 7.95083C20.4292 7.95083 20.1689 7.98048 19.9145 8.0392L19.8008 8.06544C19.4704 8.14168 19.1497 8.25523 18.845 8.40388L18.6841 8.48236C18.0574 8.78808 17.4904 9.20357 17.0101 9.70913L16.7293 10.0167C16.3847 10.3942 16.1166 10.8349 15.9399 11.3145L15.6341 12.423L15.2901 13.5315L14.7167 14.8311L14.4491 15.5574L14.1816 16.3983Z" fill="black"/>
</svg>
