<svg width="800" height="600" viewBox="0 0 800 600" fill="none" xmlns="http://www.w3.org/2000/svg">
<g clip-path="url(#clip0_2864_44)">
<rect width="800" height="600" fill="#7542C9"/>
<circle cx="729" cy="558" r="125" fill="white"/>
<circle cx="762" cy="446" r="125" fill="black"/>
<path d="M73.12 111.24H82.88C83.8933 111.24 84.88 111.027 85.84 110.6C86.8533 110.12 87.7333 109.453 88.48 108.6C89.28 107.747 89.92 106.76 90.4 105.64C90.9333 104.467 91.2 103.187 91.2 101.8C91.2 100.253 90.88 98.92 90.24 97.8C89.6 96.6267 88.8267 95.6933 87.92 95C87.0667 94.2533 86.16 93.72 85.2 93.4C84.2933 93.0267 83.5733 92.84 83.04 92.84H73.12V111.24ZM73.12 122.68V137H61.68V81.4H82.72C86.0267 81.4 88.9333 81.9067 91.44 82.92C93.9467 83.88 96.0267 85.2667 97.68 87.08C99.3867 88.8933 100.64 91.0533 101.44 93.56C102.293 96.0133 102.72 98.7333 102.72 101.72C102.72 104.707 102.32 107.48 101.52 110.04C100.773 112.547 99.5733 114.76 97.92 116.68C96.32 118.547 94.24 120.013 91.68 121.08C89.1733 122.147 86.1867 122.68 82.72 122.68H73.12ZM130.208 106.28C126.634 106.333 123.701 107.293 121.408 109.16C119.168 110.973 117.968 113.213 117.808 115.88V137H106.368V95.8H117.808V98.92C118.874 97.48 120.394 96.4133 122.368 95.72C124.341 95.0267 126.954 94.68 130.208 94.68V106.28ZM168.837 120.84H146.277C146.704 121.747 147.37 122.68 148.277 123.64C150.25 125.613 152.65 126.6 155.477 126.6C157.664 126.547 159.637 125.88 161.397 124.6L171.317 130.92C169.397 133.107 167.077 134.84 164.357 136.12C161.69 137.347 158.757 137.96 155.557 137.96C152.57 137.96 149.744 137.4 147.077 136.28C144.464 135.16 142.17 133.64 140.197 131.72C138.224 129.747 136.65 127.453 135.477 124.84C134.357 122.227 133.797 119.427 133.797 116.44C133.797 113.453 134.357 110.653 135.477 108.04C136.597 105.373 138.117 103.053 140.037 101.08C141.957 99.1067 144.224 97.56 146.837 96.44C149.45 95.2667 152.277 94.68 155.317 94.68C158.304 94.68 161.104 95.24 163.717 96.36C166.384 97.48 168.677 99.0267 170.597 101C172.57 102.92 174.117 105.187 175.237 107.8C176.41 110.413 176.997 113.213 176.997 116.2C176.997 117.8 176.837 119.347 176.517 120.84H168.837ZM155.317 106.28C152.544 106.28 150.17 107.267 148.197 109.24C147.024 110.52 146.197 111.853 145.717 113.24H165.077C164.597 111.693 163.744 110.333 162.517 109.16C160.49 107.24 158.09 106.28 155.317 106.28ZM215.479 122.68V122.76C215.479 125.747 215.053 128.173 214.199 130.04C213.399 131.853 212.146 133.293 210.439 134.36C208.786 135.373 206.706 136.067 204.199 136.44C201.693 136.813 198.786 137 195.479 137H184.679V125.56H190.839H191.719H195.799C196.333 125.56 197.053 125.56 197.959 125.56C198.919 125.507 199.826 125.4 200.679 125.24C201.586 125.027 202.359 124.733 202.999 124.36C203.639 123.987 203.959 123.427 203.959 122.68C203.959 121.88 203.639 121.267 202.999 120.84C202.359 120.36 201.586 120.04 200.679 119.88C199.826 119.667 198.919 119.533 197.959 119.48C197.053 119.427 196.333 119.4 195.799 119.4H195.479H194.439C192.413 119.4 190.519 119.213 188.759 118.84C187.053 118.467 185.533 117.88 184.199 117.08C182.866 116.227 181.773 115.16 180.919 113.88C180.119 112.547 179.639 110.947 179.479 109.08L179.399 109V108.12C179.399 105.987 179.773 104.147 180.519 102.6C181.319 101.053 182.386 99.7733 183.719 98.76C185.053 97.7467 186.626 97 188.439 96.52C190.306 96.04 192.306 95.8 194.439 95.8H205.479V107.24H203.159H194.359C192.973 107.24 192.119 107.293 191.799 107.4C191.533 107.507 191.399 107.747 191.399 108.12C191.399 108.387 191.506 108.6 191.719 108.76C191.986 108.92 192.866 109 194.359 109H198.199H195.479C198.786 109 201.693 109.16 204.199 109.48C206.706 109.747 208.786 110.36 210.439 111.32C212.146 112.28 213.399 113.667 214.199 115.48C215.053 117.24 215.479 119.613 215.479 122.6V122.68ZM252.899 120.84H230.339C230.766 121.747 231.433 122.68 232.339 123.64C234.313 125.613 236.713 126.6 239.539 126.6C241.726 126.547 243.699 125.88 245.459 124.6L255.379 130.92C253.459 133.107 251.139 134.84 248.419 136.12C245.753 137.347 242.819 137.96 239.619 137.96C236.633 137.96 233.806 137.4 231.139 136.28C228.526 135.16 226.233 133.64 224.259 131.72C222.286 129.747 220.713 127.453 219.539 124.84C218.419 122.227 217.859 119.427 217.859 116.44C217.859 113.453 218.419 110.653 219.539 108.04C220.659 105.373 222.179 103.053 224.099 101.08C226.019 99.1067 228.286 97.56 230.899 96.44C233.513 95.2667 236.339 94.68 239.379 94.68C242.366 94.68 245.166 95.24 247.779 96.36C250.446 97.48 252.739 99.0267 254.659 101C256.633 102.92 258.179 105.187 259.299 107.8C260.473 110.413 261.059 113.213 261.059 116.2C261.059 117.8 260.899 119.347 260.579 120.84H252.899ZM239.379 106.28C236.606 106.28 234.233 107.267 232.259 109.24C231.086 110.52 230.259 111.853 229.779 113.24H249.139C248.659 111.693 247.806 110.333 246.579 109.16C244.553 107.24 242.153 106.28 239.379 106.28ZM295.782 117.8V116.2C295.782 114.867 295.515 113.613 294.982 112.44C294.449 111.213 293.702 110.147 292.742 109.24C291.835 108.333 290.769 107.613 289.542 107.08C288.315 106.547 287.009 106.28 285.622 106.28C284.289 106.28 283.009 106.547 281.782 107.08C280.609 107.56 279.569 108.253 278.662 109.16C277.755 110.013 277.009 111.027 276.422 112.2C275.889 113.32 275.595 114.547 275.542 115.88V137H264.102V95.8H275.542V98.92C276.609 97.48 278.075 96.4133 279.942 95.72C281.862 95.0267 283.755 94.68 285.622 94.68C288.609 94.68 291.409 95.24 294.022 96.36C296.635 97.48 298.929 99.0267 300.902 101C302.875 102.92 304.422 105.187 305.542 107.8C306.662 110.413 307.222 113.213 307.222 116.2V137H295.782V135.48V117.8ZM320.024 137V107.24H310.744V95.8H320.024V81.4H331.464V95.8H341.064V107.24H331.464V137H320.024ZM341.358 116.2C341.358 113.213 341.918 110.413 343.038 107.8C344.158 105.187 345.705 102.92 347.678 101C349.651 99.0267 351.945 97.48 354.558 96.36C357.171 95.24 359.971 94.68 362.958 94.68C364.825 94.68 366.691 95.0267 368.558 95.72C370.478 96.4133 371.971 97.48 373.038 98.92V95.8H384.478V137H373.038V133.08C372.611 134.04 372.025 134.84 371.278 135.48C370.531 136.12 369.678 136.627 368.718 137C367.811 137.373 366.851 137.613 365.838 137.72C364.825 137.88 363.865 137.96 362.958 137.96C359.971 137.96 357.171 137.4 354.558 136.28C351.945 135.107 349.651 133.533 347.678 131.56C345.705 129.587 344.158 127.293 343.038 124.68C341.918 122.013 341.358 119.187 341.358 116.2ZM362.958 106.28C361.625 106.28 360.345 106.547 359.118 107.08C357.945 107.56 356.905 108.227 355.998 109.08C355.091 109.933 354.345 110.947 353.758 112.12C353.225 113.24 352.958 114.653 352.958 116.36C352.958 118.067 353.225 119.507 353.758 120.68C354.345 121.8 355.091 122.787 355.998 123.64C356.905 124.493 357.945 125.16 359.118 125.64C360.345 126.12 361.625 126.36 362.958 126.36C364.291 126.36 365.545 126.12 366.718 125.64C367.945 125.107 369.011 124.413 369.918 123.56C370.825 122.653 371.545 121.64 372.078 120.52C372.611 119.347 372.931 118.093 373.038 116.76V115.88C372.931 114.547 372.611 113.32 372.078 112.2C371.545 111.027 370.825 110.013 369.918 109.16C369.011 108.253 367.945 107.56 366.718 107.08C365.545 106.547 364.291 106.28 362.958 106.28ZM397.212 137V107.24H387.932V95.8H397.212V81.4H408.652V95.8H418.252V107.24H408.652V137H397.212ZM433.042 137H421.602V95.8H433.042V137ZM421.362 87.32C421.362 85.6133 421.922 84.2 423.042 83.08C424.215 81.96 425.655 81.4 427.362 81.4C429.069 81.4 430.482 81.96 431.602 83.08C432.722 84.2 433.282 85.6133 433.282 87.32C433.282 89.0267 432.722 90.4667 431.602 91.64C430.482 92.76 429.069 93.32 427.362 93.32C425.655 93.32 424.215 92.76 423.042 91.64C421.922 90.4667 421.362 89.0267 421.362 87.32ZM457.806 94.68C460.792 94.68 463.592 95.24 466.206 96.36C468.872 97.48 471.166 99.0267 473.086 101C475.059 102.92 476.606 105.187 477.726 107.8C478.899 110.413 479.486 113.213 479.486 116.2C479.486 119.187 478.926 122.013 477.806 124.68C476.739 127.293 475.219 129.587 473.246 131.56C471.326 133.48 469.059 135.027 466.446 136.2C463.832 137.373 461.032 137.96 458.046 137.96C455.059 137.96 452.232 137.4 449.566 136.28C446.952 135.16 444.659 133.64 442.686 131.72C440.712 129.747 439.139 127.453 437.966 124.84C436.846 122.227 436.286 119.427 436.286 116.44C436.286 113.453 436.819 110.653 437.886 108.04C439.006 105.373 440.526 103.08 442.446 101.16C444.419 99.1867 446.712 97.6133 449.326 96.44C451.992 95.2667 454.819 94.68 457.806 94.68ZM465.086 123.56C467.059 121.587 468.046 119.187 468.046 116.36C468.046 114.973 467.779 113.667 467.246 112.44C466.712 111.213 465.966 110.12 465.006 109.16C462.979 107.24 460.579 106.28 457.806 106.28C455.032 106.28 452.659 107.267 450.686 109.24C448.712 111.32 447.726 113.72 447.726 116.44C447.726 119.213 448.739 121.613 450.766 123.64C452.739 125.613 455.139 126.6 457.966 126.6C459.352 126.547 460.659 126.28 461.886 125.8C463.112 125.267 464.179 124.52 465.086 123.56ZM514.376 117.8V116.2C514.376 114.867 514.109 113.613 513.576 112.44C513.042 111.213 512.296 110.147 511.336 109.24C510.429 108.333 509.362 107.613 508.136 107.08C506.909 106.547 505.602 106.28 504.216 106.28C502.882 106.28 501.602 106.547 500.376 107.08C499.202 107.56 498.162 108.253 497.256 109.16C496.349 110.013 495.602 111.027 495.016 112.2C494.482 113.32 494.189 114.547 494.136 115.88V137H482.696V95.8H494.136V98.92C495.202 97.48 496.669 96.4133 498.536 95.72C500.456 95.0267 502.349 94.68 504.216 94.68C507.202 94.68 510.002 95.24 512.616 96.36C515.229 97.48 517.522 99.0267 519.496 101C521.469 102.92 523.016 105.187 524.136 107.8C525.256 110.413 525.816 113.213 525.816 116.2V137H514.376V135.48V117.8ZM61.36 197V161.32H72.8V197.16C72.8 198.173 73.0133 199.187 73.44 200.2C73.92 201.16 74.5867 202.04 75.44 202.84C76.2933 203.587 77.28 204.227 78.4 204.76C79.5733 205.24 80.8533 205.48 82.24 205.48C83.7867 205.48 85.12 205.16 86.24 204.52C87.4133 203.88 88.3467 203.133 89.04 202.28C89.7867 201.373 90.32 200.467 90.64 199.56C91.0133 198.6 91.2 197.853 91.2 197.32V161.32H102.64V197C102.64 200.307 102.133 203.213 101.12 205.72C100.16 208.227 98.7733 210.333 96.96 212.04C95.1467 213.693 92.9867 214.947 90.48 215.8C88.0267 216.6 85.3067 217 82.32 217C79.3333 217 76.56 216.627 74 215.88C71.4933 215.08 69.28 213.88 67.36 212.28C65.4933 210.627 64.0267 208.547 62.96 206.04C61.8933 203.48 61.36 200.467 61.36 197ZM85.44 147H93.52V155.08H85.44V147ZM71.04 147H79.12V155.08H71.04V147ZM157.973 217V196.2C157.973 194.867 157.866 193.613 157.653 192.44C157.44 191.213 157.04 190.147 156.453 189.24C155.92 188.333 155.173 187.613 154.213 187.08C153.306 186.547 152.16 186.28 150.773 186.28C149.44 186.28 148.32 186.547 147.413 187.08C146.506 187.56 145.76 188.253 145.173 189.16C144.64 190.013 144.24 191.027 143.973 192.2C143.706 193.213 143.546 194.307 143.493 195.48V196.2V217H132.053V196.2C132.053 194.867 131.946 193.613 131.733 192.44C131.52 191.213 131.12 190.147 130.533 189.24C130 188.333 129.253 187.613 128.293 187.08C127.386 186.547 126.24 186.28 124.853 186.28C123.52 186.28 122.4 186.547 121.493 187.08C120.586 187.56 119.84 188.253 119.253 189.16C118.72 190.013 118.32 191.027 118.053 192.2C117.786 193.32 117.626 194.547 117.573 195.88V217H106.133V175.8H117.573V178.92C118.106 178.227 118.773 177.613 119.573 177.08C120.426 176.547 121.28 176.093 122.133 175.72C122.986 175.347 123.813 175.08 124.613 174.92C125.466 174.76 126.16 174.68 126.693 174.68C127.546 174.68 128.56 174.707 129.733 174.76C130.906 174.813 132.106 175.053 133.333 175.48C134.56 175.853 135.786 176.493 137.013 177.4C138.24 178.253 139.333 179.48 140.293 181.08L140.373 181.16C141.493 179.453 142.64 178.173 143.813 177.32C145.04 176.413 146.213 175.773 147.333 175.4C148.453 174.973 149.466 174.76 150.373 174.76C151.333 174.707 152.08 174.68 152.613 174.68C153.466 174.68 154.48 174.707 155.653 174.76C156.826 174.813 158.026 175.053 159.253 175.48C160.48 175.853 161.706 176.493 162.933 177.4C164.16 178.253 165.253 179.48 166.213 181.08C167.173 182.68 167.946 184.707 168.533 187.16C169.12 189.613 169.413 192.627 169.413 196.2V217H157.973ZM184.212 194.84V196.44C184.212 197.773 184.479 199.053 185.012 200.28C185.545 201.453 186.265 202.493 187.172 203.4C188.079 204.307 189.145 205.027 190.372 205.56C191.652 206.093 192.985 206.36 194.372 206.36C195.705 206.36 196.959 206.12 198.132 205.64C199.359 205.107 200.425 204.413 201.332 203.56C202.239 202.653 202.959 201.64 203.492 200.52C204.025 199.347 204.345 198.093 204.452 196.76V175.8H215.892V217H204.452V213.72C203.385 215.16 201.892 216.227 199.972 216.92C198.105 217.613 196.239 217.96 194.372 217.96C191.385 217.96 188.585 217.4 185.972 216.28C183.359 215.16 181.065 213.64 179.092 211.72C177.119 209.747 175.572 207.453 174.452 204.84C173.332 202.227 172.772 199.427 172.772 196.44V175.8H184.212V177.16V194.84ZM197.492 158.2H205.572V166.28H197.492V158.2ZM183.092 158.2H191.172V166.28H183.092V158.2ZM269.138 187.4C266.258 187.4 263.831 188.387 261.858 190.36C260.898 191.373 260.151 192.387 259.618 193.4C259.138 194.36 258.898 195.293 258.898 196.2C258.898 197.373 259.164 198.52 259.698 199.64C260.231 200.707 260.978 201.72 261.938 202.68C263.911 204.653 266.311 205.64 269.138 205.64H277.778V217H269.138C266.204 217 263.404 216.44 260.738 215.32C258.124 214.2 255.831 212.68 253.858 210.76C251.884 208.787 250.311 206.493 249.138 203.88C248.018 201.267 247.458 198.787 247.458 196.44C247.458 194.2 247.991 191.773 249.058 189.16C250.178 186.493 251.698 184.2 253.618 182.28C255.591 180.307 257.884 178.733 260.498 177.56C263.164 176.387 266.044 175.8 269.138 175.8H277.778V187.4H269.138ZM301.79 174.68C304.777 174.68 307.577 175.24 310.19 176.36C312.857 177.48 315.15 179.027 317.07 181C319.043 182.92 320.59 185.187 321.71 187.8C322.883 190.413 323.47 193.213 323.47 196.2C323.47 199.187 322.91 202.013 321.79 204.68C320.723 207.293 319.203 209.587 317.23 211.56C315.31 213.48 313.043 215.027 310.43 216.2C307.817 217.373 305.017 217.96 302.03 217.96C299.043 217.96 296.217 217.4 293.55 216.28C290.937 215.16 288.643 213.64 286.67 211.72C284.697 209.747 283.123 207.453 281.95 204.84C280.83 202.227 280.27 199.427 280.27 196.44C280.27 193.453 280.803 190.653 281.87 188.04C282.99 185.373 284.51 183.08 286.43 181.16C288.403 179.187 290.697 177.613 293.31 176.44C295.977 175.267 298.803 174.68 301.79 174.68ZM309.07 203.56C311.043 201.587 312.03 199.187 312.03 196.36C312.03 194.973 311.763 193.667 311.23 192.44C310.697 191.213 309.95 190.12 308.99 189.16C306.963 187.24 304.563 186.28 301.79 186.28C299.017 186.28 296.643 187.267 294.67 189.24C292.697 191.32 291.71 193.72 291.71 196.44C291.71 199.213 292.723 201.613 294.75 203.64C296.723 205.613 299.123 206.6 301.95 206.6C303.337 206.547 304.643 206.28 305.87 205.8C307.097 205.267 308.163 204.52 309.07 203.56ZM378.52 217V196.2C378.52 194.867 378.413 193.613 378.2 192.44C377.987 191.213 377.587 190.147 377 189.24C376.467 188.333 375.72 187.613 374.76 187.08C373.853 186.547 372.707 186.28 371.32 186.28C369.987 186.28 368.867 186.547 367.96 187.08C367.053 187.56 366.307 188.253 365.72 189.16C365.187 190.013 364.787 191.027 364.52 192.2C364.253 193.213 364.093 194.307 364.04 195.48V196.2V217H352.6V196.2C352.6 194.867 352.493 193.613 352.28 192.44C352.067 191.213 351.667 190.147 351.08 189.24C350.547 188.333 349.8 187.613 348.84 187.08C347.933 186.547 346.787 186.28 345.4 186.28C344.067 186.28 342.947 186.547 342.04 187.08C341.133 187.56 340.387 188.253 339.8 189.16C339.267 190.013 338.867 191.027 338.6 192.2C338.333 193.32 338.173 194.547 338.12 195.88V217H326.68V175.8H338.12V178.92C338.653 178.227 339.32 177.613 340.12 177.08C340.973 176.547 341.827 176.093 342.68 175.72C343.533 175.347 344.36 175.08 345.16 174.92C346.013 174.76 346.707 174.68 347.24 174.68C348.093 174.68 349.107 174.707 350.28 174.76C351.453 174.813 352.653 175.053 353.88 175.48C355.107 175.853 356.333 176.493 357.56 177.4C358.787 178.253 359.88 179.48 360.84 181.08L360.92 181.16C362.04 179.453 363.187 178.173 364.36 177.32C365.587 176.413 366.76 175.773 367.88 175.4C369 174.973 370.013 174.76 370.92 174.76C371.88 174.707 372.627 174.68 373.16 174.68C374.013 174.68 375.027 174.707 376.2 174.76C377.373 174.813 378.573 175.053 379.8 175.48C381.027 175.853 382.253 176.493 383.48 177.4C384.707 178.253 385.8 179.48 386.76 181.08C387.72 182.68 388.493 184.707 389.08 187.16C389.667 189.613 389.96 192.627 389.96 196.2V217H378.52ZM436.519 196.2C436.519 199.187 435.959 202.013 434.839 204.68C433.719 207.293 432.172 209.587 430.199 211.56C428.225 213.533 425.932 215.107 423.319 216.28C420.705 217.4 417.905 217.96 414.919 217.96C414.012 217.96 413.052 217.88 412.039 217.72C411.025 217.613 410.039 217.373 409.079 217C408.172 216.627 407.319 216.12 406.519 215.48C405.772 214.84 405.212 214.04 404.839 213.08V231.4H393.399V175.8H404.839V178.92C405.905 177.48 407.372 176.413 409.239 175.72C411.159 175.027 413.052 174.68 414.919 174.68C417.905 174.68 420.705 175.24 423.319 176.36C425.932 177.48 428.225 179.027 430.199 181C432.172 182.92 433.719 185.187 434.839 187.8C435.959 190.413 436.519 193.213 436.519 196.2ZM414.919 186.28C413.585 186.28 412.305 186.547 411.079 187.08C409.905 187.56 408.865 188.253 407.959 189.16C407.052 190.013 406.305 191.027 405.719 192.2C405.185 193.32 404.892 194.547 404.839 195.88V196.76C404.892 198.093 405.185 199.347 405.719 200.52C406.305 201.64 407.052 202.653 407.959 203.56C408.865 204.413 409.905 205.107 411.079 205.64C412.305 206.12 413.585 206.36 414.919 206.36C416.252 206.36 417.505 206.12 418.679 205.64C419.905 205.16 420.972 204.493 421.879 203.64C422.785 202.787 423.505 201.8 424.039 200.68C424.625 199.507 424.972 198.28 425.079 197L425.159 196.36L425.079 195.72C424.972 194.44 424.625 193.24 424.039 192.12C423.505 190.947 422.785 189.933 421.879 189.08C420.972 188.227 419.905 187.56 418.679 187.08C417.505 186.547 416.252 186.28 414.919 186.28ZM439.561 196.2C439.561 193.213 440.121 190.413 441.241 187.8C442.361 185.187 443.908 182.92 445.881 181C447.855 179.027 450.148 177.48 452.761 176.36C455.375 175.24 458.175 174.68 461.161 174.68C463.028 174.68 464.895 175.027 466.761 175.72C468.681 176.413 470.175 177.48 471.241 178.92V175.8H482.681V217H471.241V213.08C470.815 214.04 470.228 214.84 469.481 215.48C468.735 216.12 467.881 216.627 466.921 217C466.015 217.373 465.055 217.613 464.041 217.72C463.028 217.88 462.068 217.96 461.161 217.96C458.175 217.96 455.375 217.4 452.761 216.28C450.148 215.107 447.855 213.533 445.881 211.56C443.908 209.587 442.361 207.293 441.241 204.68C440.121 202.013 439.561 199.187 439.561 196.2ZM461.161 186.28C459.828 186.28 458.548 186.547 457.321 187.08C456.148 187.56 455.108 188.227 454.201 189.08C453.295 189.933 452.548 190.947 451.961 192.12C451.428 193.24 451.161 194.653 451.161 196.36C451.161 198.067 451.428 199.507 451.961 200.68C452.548 201.8 453.295 202.787 454.201 203.64C455.108 204.493 456.148 205.16 457.321 205.64C458.548 206.12 459.828 206.36 461.161 206.36C462.495 206.36 463.748 206.12 464.921 205.64C466.148 205.107 467.215 204.413 468.121 203.56C469.028 202.653 469.748 201.64 470.281 200.52C470.815 199.347 471.135 198.093 471.241 196.76V195.88C471.135 194.547 470.815 193.32 470.281 192.2C469.748 191.027 469.028 190.013 468.121 189.16C467.215 188.253 466.148 187.56 464.921 187.08C463.748 186.547 462.495 186.28 461.161 186.28ZM517.735 197.8V196.2C517.735 194.867 517.468 193.613 516.935 192.44C516.402 191.213 515.655 190.147 514.695 189.24C513.788 188.333 512.722 187.613 511.495 187.08C510.268 186.547 508.962 186.28 507.575 186.28C506.242 186.28 504.962 186.547 503.735 187.08C502.562 187.56 501.522 188.253 500.615 189.16C499.708 190.013 498.962 191.027 498.375 192.2C497.842 193.32 497.548 194.547 497.495 195.88V217H486.055V175.8H497.495V178.92C498.562 177.48 500.028 176.413 501.895 175.72C503.815 175.027 505.708 174.68 507.575 174.68C510.562 174.68 513.362 175.24 515.975 176.36C518.588 177.48 520.882 179.027 522.855 181C524.828 182.92 526.375 185.187 527.495 187.8C528.615 190.413 529.175 193.213 529.175 196.2V217H517.735V215.48V197.8ZM554.058 203L566.858 175.8H575.658V183.88L559.818 217L555.738 226.68C554.671 228.973 553.258 230.973 551.497 232.68C549.738 234.387 547.818 235.747 545.738 236.76L541.738 225.88C542.644 225.347 543.471 224.733 544.218 224.04C544.964 223.347 545.551 222.547 545.978 221.64L548.378 217L532.538 183.88V175.8H541.338L554.058 203Z" fill="white"/>
<circle cx="854" cy="390" r="125" fill="#FFBF1B"/>
<path d="M60.55 284V266.625H64.125V280.425H68.35V284H60.55ZM80.1443 278.95H73.0943C73.2277 279.233 73.436 279.525 73.7193 279.825C74.336 280.442 75.086 280.75 75.9693 280.75C76.6527 280.733 77.2693 280.525 77.8193 280.125L80.9193 282.1C80.3193 282.783 79.5943 283.325 78.7443 283.725C77.911 284.108 76.9943 284.3 75.9943 284.3C75.061 284.3 74.1777 284.125 73.3443 283.775C72.5277 283.425 71.811 282.95 71.1943 282.35C70.5777 281.733 70.086 281.017 69.7193 280.2C69.3693 279.383 69.1943 278.508 69.1943 277.575C69.1943 276.642 69.3693 275.767 69.7193 274.95C70.0693 274.117 70.5443 273.392 71.1443 272.775C71.7443 272.158 72.4527 271.675 73.2693 271.325C74.086 270.958 74.9693 270.775 75.9193 270.775C76.8527 270.775 77.7277 270.95 78.5443 271.3C79.3777 271.65 80.0943 272.133 80.6943 272.75C81.311 273.35 81.7943 274.058 82.1443 274.875C82.511 275.692 82.6943 276.567 82.6943 277.5C82.6943 278 82.6443 278.483 82.5443 278.95H80.1443ZM75.9193 274.4C75.0527 274.4 74.311 274.708 73.6943 275.325C73.3277 275.725 73.0693 276.142 72.9193 276.575H78.9693C78.8193 276.092 78.5527 275.667 78.1693 275.3C77.536 274.7 76.786 274.4 75.9193 274.4ZM86.5701 284V274.7H83.6701V271.125H86.5701V266.625H90.1451V271.125H93.1451V274.7H90.1451V284H86.5701ZM95.367 273.05C95.6837 272.783 95.7587 272.417 95.592 271.95H94.467V268.375H98.042V271.95C98.042 272.65 97.9587 273.192 97.792 273.575C97.6253 273.958 97.3503 274.333 96.967 274.7L95.367 273.05ZM110.565 279.525V279.55C110.565 280.483 110.432 281.242 110.165 281.825C109.915 282.392 109.523 282.842 108.99 283.175C108.473 283.492 107.823 283.708 107.04 283.825C106.257 283.942 105.348 284 104.315 284H100.94V280.425H102.865H103.14H104.415C104.582 280.425 104.807 280.425 105.09 280.425C105.39 280.408 105.673 280.375 105.94 280.325C106.223 280.258 106.465 280.167 106.665 280.05C106.865 279.933 106.965 279.758 106.965 279.525C106.965 279.275 106.865 279.083 106.665 278.95C106.465 278.8 106.223 278.7 105.94 278.65C105.673 278.583 105.39 278.542 105.09 278.525C104.807 278.508 104.582 278.5 104.415 278.5H104.315H103.99C103.357 278.5 102.765 278.442 102.215 278.325C101.682 278.208 101.207 278.025 100.79 277.775C100.373 277.508 100.032 277.175 99.7648 276.775C99.5148 276.358 99.3648 275.858 99.3148 275.275L99.2898 275.25V274.975C99.2898 274.308 99.4065 273.733 99.6398 273.25C99.8898 272.767 100.223 272.367 100.64 272.05C101.057 271.733 101.548 271.5 102.115 271.35C102.698 271.2 103.323 271.125 103.99 271.125H107.44V274.7H106.715H103.965C103.532 274.7 103.265 274.717 103.165 274.75C103.082 274.783 103.04 274.858 103.04 274.975C103.04 275.058 103.073 275.125 103.14 275.175C103.223 275.225 103.498 275.25 103.965 275.25H105.165H104.315C105.348 275.25 106.257 275.3 107.04 275.4C107.823 275.483 108.473 275.675 108.99 275.975C109.523 276.275 109.915 276.708 110.165 277.275C110.432 277.825 110.565 278.567 110.565 279.5V279.525ZM123.02 284V274.7H120.12V271.125H123.02V266.625H126.595V271.125H129.595V274.7H126.595V284H123.02ZM129.687 277.5C129.687 276.567 129.862 275.692 130.212 274.875C130.562 274.058 131.045 273.35 131.662 272.75C132.279 272.133 132.995 271.65 133.812 271.3C134.629 270.95 135.504 270.775 136.437 270.775C137.02 270.775 137.604 270.883 138.187 271.1C138.787 271.317 139.254 271.65 139.587 272.1V271.125H143.162V284H139.587V282.775C139.454 283.075 139.27 283.325 139.037 283.525C138.804 283.725 138.537 283.883 138.237 284C137.954 284.117 137.654 284.192 137.337 284.225C137.02 284.275 136.72 284.3 136.437 284.3C135.504 284.3 134.629 284.125 133.812 283.775C132.995 283.408 132.279 282.917 131.662 282.3C131.045 281.683 130.562 280.967 130.212 280.15C129.862 279.317 129.687 278.433 129.687 277.5ZM136.437 274.4C136.02 274.4 135.62 274.483 135.237 274.65C134.87 274.8 134.545 275.008 134.262 275.275C133.979 275.542 133.745 275.858 133.562 276.225C133.395 276.575 133.312 277.017 133.312 277.55C133.312 278.083 133.395 278.533 133.562 278.9C133.745 279.25 133.979 279.558 134.262 279.825C134.545 280.092 134.87 280.3 135.237 280.45C135.62 280.6 136.02 280.675 136.437 280.675C136.854 280.675 137.245 280.6 137.612 280.45C137.995 280.283 138.329 280.067 138.612 279.8C138.895 279.517 139.12 279.2 139.287 278.85C139.454 278.483 139.554 278.092 139.587 277.675V277.4C139.554 276.983 139.454 276.6 139.287 276.25C139.12 275.883 138.895 275.567 138.612 275.3C138.329 275.017 137.995 274.8 137.612 274.65C137.245 274.483 136.854 274.4 136.437 274.4ZM147.791 284H144.216V266.625H147.791V284ZM152.481 284H148.906V266.625H152.481V275.225L156.581 271.125H159.106V273.65L156.831 275.925L162.381 281.475V284H159.856L154.306 278.45L152.481 280.275V284ZM172.29 277.5C172.29 276.567 172.465 275.692 172.815 274.875C173.165 274.058 173.648 273.35 174.265 272.75C174.881 272.133 175.598 271.65 176.415 271.3C177.231 270.95 178.106 270.775 179.04 270.775C179.623 270.775 180.206 270.883 180.79 271.1C181.39 271.317 181.856 271.65 182.19 272.1V271.125H185.765V284H182.19V282.775C182.056 283.075 181.873 283.325 181.64 283.525C181.406 283.725 181.14 283.883 180.84 284C180.556 284.117 180.256 284.192 179.94 284.225C179.623 284.275 179.323 284.3 179.04 284.3C178.106 284.3 177.231 284.125 176.415 283.775C175.598 283.408 174.881 282.917 174.265 282.3C173.648 281.683 173.165 280.967 172.815 280.15C172.465 279.317 172.29 278.433 172.29 277.5ZM179.04 274.4C178.623 274.4 178.223 274.483 177.84 274.65C177.473 274.8 177.148 275.008 176.865 275.275C176.581 275.542 176.348 275.858 176.165 276.225C175.998 276.575 175.915 277.017 175.915 277.55C175.915 278.083 175.998 278.533 176.165 278.9C176.348 279.25 176.581 279.558 176.865 279.825C177.148 280.092 177.473 280.3 177.84 280.45C178.223 280.6 178.623 280.675 179.04 280.675C179.456 280.675 179.848 280.6 180.215 280.45C180.598 280.283 180.931 280.067 181.215 279.8C181.498 279.517 181.723 279.2 181.89 278.85C182.056 278.483 182.156 278.092 182.19 277.675V277.4C182.156 276.983 182.056 276.6 181.89 276.25C181.723 275.883 181.498 275.567 181.215 275.3C180.931 275.017 180.598 274.8 180.215 274.65C179.848 274.483 179.456 274.4 179.04 274.4ZM200.319 277.625C200.319 278.558 200.144 279.433 199.794 280.25C199.444 281.067 198.961 281.775 198.344 282.375C197.727 282.975 197.011 283.45 196.194 283.8C195.377 284.133 194.502 284.3 193.569 284.3C192.986 284.3 192.394 284.2 191.794 284C191.211 283.8 190.752 283.475 190.419 283.025V284H186.844V266.625H190.419V272.35C190.536 272.05 190.711 271.8 190.944 271.6C191.194 271.383 191.461 271.217 191.744 271.1C192.044 270.983 192.352 270.9 192.669 270.85C192.986 270.8 193.286 270.775 193.569 270.775C194.502 270.775 195.377 270.958 196.194 271.325C197.011 271.675 197.727 272.167 198.344 272.8C198.961 273.417 199.444 274.142 199.794 274.975C200.144 275.808 200.319 276.692 200.319 277.625ZM193.569 280.725C193.986 280.725 194.377 280.65 194.744 280.5C195.127 280.333 195.461 280.117 195.744 279.85C196.027 279.583 196.252 279.275 196.419 278.925C196.602 278.558 196.711 278.175 196.744 277.775L196.769 277.575L196.744 277.375C196.711 276.975 196.602 276.6 196.419 276.25C196.252 275.883 196.027 275.567 195.744 275.3C195.461 275.033 195.127 274.825 194.744 274.675C194.377 274.525 193.986 274.45 193.569 274.45C193.152 274.45 192.752 274.533 192.369 274.7C192.002 274.85 191.677 275.067 191.394 275.35C191.111 275.617 190.877 275.933 190.694 276.3C190.527 276.65 190.436 277.033 190.419 277.45V277.725C190.436 278.142 190.527 278.533 190.694 278.9C190.877 279.25 191.111 279.567 191.394 279.85C191.677 280.117 192.002 280.333 192.369 280.5C192.752 280.65 193.152 280.725 193.569 280.725ZM208.094 270.775C209.027 270.775 209.902 270.95 210.719 271.3C211.552 271.65 212.269 272.133 212.869 272.75C213.485 273.35 213.969 274.058 214.319 274.875C214.685 275.692 214.869 276.567 214.869 277.5C214.869 278.433 214.694 279.317 214.344 280.15C214.01 280.967 213.535 281.683 212.919 282.3C212.319 282.9 211.61 283.383 210.794 283.75C209.977 284.117 209.102 284.3 208.169 284.3C207.235 284.3 206.352 284.125 205.519 283.775C204.702 283.425 203.985 282.95 203.369 282.35C202.752 281.733 202.26 281.017 201.894 280.2C201.544 279.383 201.369 278.508 201.369 277.575C201.369 276.642 201.535 275.767 201.869 274.95C202.219 274.117 202.694 273.4 203.294 272.8C203.91 272.183 204.627 271.692 205.444 271.325C206.277 270.958 207.16 270.775 208.094 270.775ZM210.369 279.8C210.985 279.183 211.294 278.433 211.294 277.55C211.294 277.117 211.21 276.708 211.044 276.325C210.877 275.942 210.644 275.6 210.344 275.3C209.71 274.7 208.96 274.4 208.094 274.4C207.227 274.4 206.485 274.708 205.869 275.325C205.252 275.975 204.944 276.725 204.944 277.575C204.944 278.442 205.26 279.192 205.894 279.825C206.51 280.442 207.26 280.75 208.144 280.75C208.577 280.733 208.985 280.65 209.369 280.5C209.752 280.333 210.085 280.1 210.369 279.8ZM219.422 277.075V277.575C219.422 277.992 219.505 278.392 219.672 278.775C219.838 279.142 220.063 279.467 220.347 279.75C220.63 280.033 220.963 280.258 221.347 280.425C221.747 280.592 222.163 280.675 222.597 280.675C223.013 280.675 223.405 280.6 223.772 280.45C224.155 280.283 224.488 280.067 224.772 279.8C225.055 279.517 225.28 279.2 225.447 278.85C225.613 278.483 225.713 278.092 225.747 277.675V271.125H229.322V284H225.747V282.975C225.413 283.425 224.947 283.758 224.347 283.975C223.763 284.192 223.18 284.3 222.597 284.3C221.663 284.3 220.788 284.125 219.972 283.775C219.155 283.425 218.438 282.95 217.822 282.35C217.205 281.733 216.722 281.017 216.372 280.2C216.022 279.383 215.847 278.508 215.847 277.575V271.125H219.422V271.55V277.075ZM233.274 284V274.7H230.374V271.125H233.274V266.625H236.849V271.125H239.849V274.7H236.849V284H233.274ZM249.683 277.75V266.6H253.258V277.8C253.258 278.117 253.324 278.433 253.458 278.75C253.608 279.05 253.816 279.325 254.083 279.575C254.349 279.808 254.658 280.008 255.008 280.175C255.374 280.325 255.774 280.4 256.208 280.4C256.691 280.4 257.108 280.3 257.458 280.1C257.824 279.9 258.116 279.667 258.333 279.4C258.566 279.117 258.733 278.833 258.833 278.55C258.949 278.25 259.008 278.017 259.008 277.85V266.6H262.583V277.75C262.583 278.783 262.424 279.692 262.108 280.475C261.808 281.258 261.374 281.917 260.808 282.45C260.241 282.967 259.566 283.358 258.783 283.625C258.016 283.875 257.166 284 256.233 284C255.299 284 254.433 283.883 253.633 283.65C252.849 283.4 252.158 283.025 251.558 282.525C250.974 282.008 250.516 281.358 250.183 280.575C249.849 279.775 249.683 278.833 249.683 277.75ZM257.208 262.125H259.733V264.65H257.208V262.125ZM252.708 262.125H255.233V264.65H252.708V262.125ZM279.874 284V277.5C279.874 277.083 279.841 276.692 279.774 276.325C279.708 275.942 279.583 275.608 279.399 275.325C279.233 275.042 278.999 274.817 278.699 274.65C278.416 274.483 278.058 274.4 277.624 274.4C277.208 274.4 276.858 274.483 276.574 274.65C276.291 274.8 276.058 275.017 275.874 275.3C275.708 275.567 275.583 275.883 275.499 276.25C275.416 276.567 275.366 276.908 275.349 277.275V277.5V284H271.774V277.5C271.774 277.083 271.741 276.692 271.674 276.325C271.608 275.942 271.483 275.608 271.299 275.325C271.133 275.042 270.899 274.817 270.599 274.65C270.316 274.483 269.958 274.4 269.524 274.4C269.108 274.4 268.758 274.483 268.474 274.65C268.191 274.8 267.958 275.017 267.774 275.3C267.608 275.567 267.483 275.883 267.399 276.25C267.316 276.6 267.266 276.983 267.249 277.4V284H263.674V271.125H267.249V272.1C267.416 271.883 267.624 271.692 267.874 271.525C268.141 271.358 268.408 271.217 268.674 271.1C268.941 270.983 269.199 270.9 269.449 270.85C269.716 270.8 269.933 270.775 270.099 270.775C270.366 270.775 270.683 270.783 271.049 270.8C271.416 270.817 271.791 270.892 272.174 271.025C272.558 271.142 272.941 271.342 273.324 271.625C273.708 271.892 274.049 272.275 274.349 272.775L274.374 272.8C274.724 272.267 275.083 271.867 275.449 271.6C275.833 271.317 276.199 271.117 276.549 271C276.899 270.867 277.216 270.8 277.499 270.8C277.799 270.783 278.033 270.775 278.199 270.775C278.466 270.775 278.783 270.783 279.149 270.8C279.516 270.817 279.891 270.892 280.274 271.025C280.658 271.142 281.041 271.342 281.424 271.625C281.808 271.892 282.149 272.275 282.449 272.775C282.749 273.275 282.991 273.908 283.174 274.675C283.358 275.442 283.449 276.383 283.449 277.5V284H279.874ZM288.074 277.075V277.575C288.074 277.992 288.157 278.392 288.324 278.775C288.491 279.142 288.716 279.467 288.999 279.75C289.282 280.033 289.616 280.258 289.999 280.425C290.399 280.592 290.816 280.675 291.249 280.675C291.666 280.675 292.057 280.6 292.424 280.45C292.807 280.283 293.141 280.067 293.424 279.8C293.707 279.517 293.932 279.2 294.099 278.85C294.266 278.483 294.366 278.092 294.399 277.675V271.125H297.974V284H294.399V282.975C294.066 283.425 293.599 283.758 292.999 283.975C292.416 284.192 291.832 284.3 291.249 284.3C290.316 284.3 289.441 284.125 288.624 283.775C287.807 283.425 287.091 282.95 286.474 282.35C285.857 281.733 285.374 281.017 285.024 280.2C284.674 279.383 284.499 278.508 284.499 277.575V271.125H288.074V271.55V277.075ZM292.224 265.625H294.749V268.15H292.224V265.625ZM287.724 265.625H290.249V268.15H287.724V265.625ZM310.813 284V274.7H307.913V271.125H310.813V266.625H314.388V271.125H317.388V274.7H314.388V284H310.813ZM325.11 270.775C326.043 270.775 326.918 270.95 327.735 271.3C328.568 271.65 329.285 272.133 329.885 272.75C330.502 273.35 330.985 274.058 331.335 274.875C331.702 275.692 331.885 276.567 331.885 277.5C331.885 278.433 331.71 279.317 331.36 280.15C331.027 280.967 330.552 281.683 329.935 282.3C329.335 282.9 328.627 283.383 327.81 283.75C326.993 284.117 326.118 284.3 325.185 284.3C324.252 284.3 323.368 284.125 322.535 283.775C321.718 283.425 321.002 282.95 320.385 282.35C319.768 281.733 319.277 281.017 318.91 280.2C318.56 279.383 318.385 278.508 318.385 277.575C318.385 276.642 318.552 275.767 318.885 274.95C319.235 274.117 319.71 273.4 320.31 272.8C320.927 272.183 321.643 271.692 322.46 271.325C323.293 270.958 324.177 270.775 325.11 270.775ZM327.385 279.8C328.002 279.183 328.31 278.433 328.31 277.55C328.31 277.117 328.227 276.708 328.06 276.325C327.893 275.942 327.66 275.6 327.36 275.3C326.727 274.7 325.977 274.4 325.11 274.4C324.243 274.4 323.502 274.708 322.885 275.325C322.268 275.975 321.96 276.725 321.96 277.575C321.96 278.442 322.277 279.192 322.91 279.825C323.527 280.442 324.277 280.75 325.16 280.75C325.593 280.733 326.002 280.65 326.385 280.5C326.768 280.333 327.102 280.1 327.385 279.8ZM332.254 277.625C332.254 276.692 332.429 275.808 332.779 274.975C333.129 274.142 333.612 273.417 334.229 272.8C334.845 272.167 335.562 271.675 336.379 271.325C337.195 270.958 338.07 270.775 339.004 270.775C339.287 270.775 339.587 270.8 339.904 270.85C340.22 270.9 340.52 270.983 340.804 271.1C341.104 271.217 341.37 271.383 341.604 271.6C341.837 271.8 342.02 272.05 342.154 272.35V266.625H345.729V284H342.154V283.025C341.82 283.475 341.354 283.8 340.754 284C340.17 284.2 339.587 284.3 339.004 284.3C338.07 284.3 337.195 284.133 336.379 283.8C335.562 283.45 334.845 282.975 334.229 282.375C333.612 281.775 333.129 281.067 332.779 280.25C332.429 279.433 332.254 278.558 332.254 277.625ZM339.054 280.725C339.47 280.725 339.862 280.65 340.229 280.5C340.612 280.333 340.945 280.117 341.229 279.85C341.512 279.567 341.737 279.25 341.904 278.9C342.07 278.533 342.17 278.142 342.204 277.725V277.45C342.17 277.033 342.07 276.65 341.904 276.3C341.737 275.933 341.512 275.617 341.229 275.35C340.945 275.067 340.612 274.85 340.229 274.7C339.862 274.533 339.47 274.45 339.054 274.45C338.637 274.45 338.237 274.525 337.854 274.675C337.487 274.825 337.162 275.033 336.879 275.3C336.595 275.567 336.362 275.883 336.179 276.25C336.012 276.6 335.912 276.975 335.879 277.375L335.854 277.575L335.879 277.775C335.912 278.175 336.012 278.558 336.179 278.925C336.362 279.275 336.595 279.583 336.879 279.85C337.162 280.117 337.487 280.333 337.854 280.5C338.237 280.65 338.637 280.725 339.054 280.725ZM346.679 277.5C346.679 276.567 346.854 275.692 347.204 274.875C347.554 274.058 348.038 273.35 348.654 272.75C349.271 272.133 349.988 271.65 350.804 271.3C351.621 270.95 352.496 270.775 353.429 270.775C354.013 270.775 354.596 270.883 355.179 271.1C355.779 271.317 356.246 271.65 356.579 272.1V271.125H360.154V284H356.579V282.775C356.446 283.075 356.263 283.325 356.029 283.525C355.796 283.725 355.529 283.883 355.229 284C354.946 284.117 354.646 284.192 354.329 284.225C354.013 284.275 353.713 284.3 353.429 284.3C352.496 284.3 351.621 284.125 350.804 283.775C349.988 283.408 349.271 282.917 348.654 282.3C348.038 281.683 347.554 280.967 347.204 280.15C346.854 279.317 346.679 278.433 346.679 277.5ZM353.429 274.4C353.013 274.4 352.613 274.483 352.229 274.65C351.863 274.8 351.538 275.008 351.254 275.275C350.971 275.542 350.738 275.858 350.554 276.225C350.388 276.575 350.304 277.017 350.304 277.55C350.304 278.083 350.388 278.533 350.554 278.9C350.738 279.25 350.971 279.558 351.254 279.825C351.538 280.092 351.863 280.3 352.229 280.45C352.613 280.6 353.013 280.675 353.429 280.675C353.846 280.675 354.238 280.6 354.604 280.45C354.988 280.283 355.321 280.067 355.604 279.8C355.888 279.517 356.113 279.2 356.279 278.85C356.446 278.483 356.546 278.092 356.579 277.675V277.4C356.546 276.983 356.446 276.6 356.279 276.25C356.113 275.883 355.888 275.567 355.604 275.3C355.321 275.017 354.988 274.8 354.604 274.65C354.238 274.483 353.846 274.4 353.429 274.4ZM367.909 279.625L371.909 271.125H374.659V273.65L369.709 284L368.434 287.025C368.1 287.742 367.659 288.367 367.109 288.9C366.559 289.433 365.959 289.858 365.309 290.175L364.059 286.775C364.342 286.608 364.6 286.417 364.834 286.2C365.067 285.983 365.25 285.733 365.384 285.45L366.134 284L361.184 273.65V271.125H363.934L367.909 279.625ZM384.798 278.275V274.725H393.348V278.275H384.798ZM406.346 284V274.7H403.446V271.125H406.346V266.625H409.921V271.125H412.921V274.7H409.921V284H406.346ZM423.867 278L423.892 277.5C423.876 277.083 423.784 276.683 423.617 276.3C423.451 275.917 423.217 275.592 422.917 275.325C422.634 275.042 422.301 274.817 421.917 274.65C421.534 274.483 421.126 274.4 420.692 274.4C420.276 274.4 419.876 274.483 419.492 274.65C419.126 274.8 418.801 275.017 418.517 275.3C418.234 275.567 418.001 275.883 417.817 276.25C417.651 276.6 417.559 276.983 417.542 277.4V284H413.967V266.625H417.542V272.1C417.876 271.65 418.334 271.317 418.917 271.1C419.517 270.883 420.109 270.775 420.692 270.775C421.626 270.775 422.501 270.95 423.317 271.3C424.134 271.65 424.851 272.133 425.467 272.75C426.084 273.35 426.567 274.058 426.917 274.875C427.267 275.692 427.442 276.567 427.442 277.5V284H423.867V283.525V278ZM439.568 278.95H432.518C432.651 279.233 432.86 279.525 433.143 279.825C433.76 280.442 434.51 280.75 435.393 280.75C436.076 280.733 436.693 280.525 437.243 280.125L440.343 282.1C439.743 282.783 439.018 283.325 438.168 283.725C437.335 284.108 436.418 284.3 435.418 284.3C434.485 284.3 433.601 284.125 432.768 283.775C431.951 283.425 431.235 282.95 430.618 282.35C430.001 281.733 429.51 281.017 429.143 280.2C428.793 279.383 428.618 278.508 428.618 277.575C428.618 276.642 428.793 275.767 429.143 274.95C429.493 274.117 429.968 273.392 430.568 272.775C431.168 272.158 431.876 271.675 432.693 271.325C433.51 270.958 434.393 270.775 435.343 270.775C436.276 270.775 437.151 270.95 437.968 271.3C438.801 271.65 439.518 272.133 440.118 272.75C440.735 273.35 441.218 274.058 441.568 274.875C441.935 275.692 442.118 276.567 442.118 277.5C442.118 278 442.068 278.483 441.968 278.95H439.568ZM435.343 274.4C434.476 274.4 433.735 274.708 433.118 275.325C432.751 275.725 432.493 276.142 432.343 276.575H438.393C438.243 276.092 437.976 275.667 437.593 275.3C436.96 274.7 436.21 274.4 435.343 274.4ZM458.681 274.75C457.781 274.75 457.022 275.058 456.406 275.675C456.106 275.992 455.872 276.308 455.706 276.625C455.556 276.925 455.481 277.217 455.481 277.5C455.481 277.867 455.564 278.225 455.731 278.575C455.897 278.908 456.131 279.225 456.431 279.525C457.047 280.142 457.797 280.45 458.681 280.45H461.381V284H458.681C457.764 284 456.889 283.825 456.056 283.475C455.239 283.125 454.522 282.65 453.906 282.05C453.289 281.433 452.797 280.717 452.431 279.9C452.081 279.083 451.906 278.308 451.906 277.575C451.906 276.875 452.072 276.117 452.406 275.3C452.756 274.467 453.231 273.75 453.831 273.15C454.447 272.533 455.164 272.042 455.981 271.675C456.814 271.308 457.714 271.125 458.681 271.125H461.381V274.75H458.681ZM468.885 270.775C469.818 270.775 470.693 270.95 471.51 271.3C472.343 271.65 473.06 272.133 473.66 272.75C474.276 273.35 474.76 274.058 475.11 274.875C475.476 275.692 475.66 276.567 475.66 277.5C475.66 278.433 475.485 279.317 475.135 280.15C474.801 280.967 474.326 281.683 473.71 282.3C473.11 282.9 472.401 283.383 471.585 283.75C470.768 284.117 469.893 284.3 468.96 284.3C468.026 284.3 467.143 284.125 466.31 283.775C465.493 283.425 464.776 282.95 464.16 282.35C463.543 281.733 463.051 281.017 462.685 280.2C462.335 279.383 462.16 278.508 462.16 277.575C462.16 276.642 462.326 275.767 462.66 274.95C463.01 274.117 463.485 273.4 464.085 272.8C464.701 272.183 465.418 271.692 466.235 271.325C467.068 270.958 467.951 270.775 468.885 270.775ZM471.16 279.8C471.776 279.183 472.085 278.433 472.085 277.55C472.085 277.117 472.001 276.708 471.835 276.325C471.668 275.942 471.435 275.6 471.135 275.3C470.501 274.7 469.751 274.4 468.885 274.4C468.018 274.4 467.276 274.708 466.66 275.325C466.043 275.975 465.735 276.725 465.735 277.575C465.735 278.442 466.051 279.192 466.685 279.825C467.301 280.442 468.051 280.75 468.935 280.75C469.368 280.733 469.776 280.65 470.16 280.5C470.543 280.333 470.876 280.1 471.16 279.8ZM482.923 270.775C483.856 270.775 484.731 270.95 485.548 271.3C486.381 271.65 487.098 272.133 487.698 272.75C488.314 273.35 488.798 274.058 489.148 274.875C489.514 275.692 489.698 276.567 489.698 277.5C489.698 278.433 489.523 279.317 489.173 280.15C488.839 280.967 488.364 281.683 487.748 282.3C487.148 282.9 486.439 283.383 485.623 283.75C484.806 284.117 483.931 284.3 482.998 284.3C482.064 284.3 481.181 284.125 480.348 283.775C479.531 283.425 478.814 282.95 478.198 282.35C477.581 281.733 477.089 281.017 476.723 280.2C476.373 279.383 476.198 278.508 476.198 277.575C476.198 276.642 476.364 275.767 476.698 274.95C477.048 274.117 477.523 273.4 478.123 272.8C478.739 272.183 479.456 271.692 480.273 271.325C481.106 270.958 481.989 270.775 482.923 270.775ZM485.198 279.8C485.814 279.183 486.123 278.433 486.123 277.55C486.123 277.117 486.039 276.708 485.873 276.325C485.706 275.942 485.473 275.6 485.173 275.3C484.539 274.7 483.789 274.4 482.923 274.4C482.056 274.4 481.314 274.708 480.698 275.325C480.081 275.975 479.773 276.725 479.773 277.575C479.773 278.442 480.089 279.192 480.723 279.825C481.339 280.442 482.089 280.75 482.973 280.75C483.406 280.733 483.814 280.65 484.198 280.5C484.581 280.333 484.914 280.1 485.198 279.8ZM494.276 284H490.701V266.625H494.276V284ZM506.365 278.95H499.315C499.448 279.233 499.657 279.525 499.94 279.825C500.557 280.442 501.307 280.75 502.19 280.75C502.873 280.733 503.49 280.525 504.04 280.125L507.14 282.1C506.54 282.783 505.815 283.325 504.965 283.725C504.132 284.108 503.215 284.3 502.215 284.3C501.282 284.3 500.398 284.125 499.565 283.775C498.748 283.425 498.032 282.95 497.415 282.35C496.798 281.733 496.307 281.017 495.94 280.2C495.59 279.383 495.415 278.508 495.415 277.575C495.415 276.642 495.59 275.767 495.94 274.95C496.29 274.117 496.765 273.392 497.365 272.775C497.965 272.158 498.673 271.675 499.49 271.325C500.307 270.958 501.19 270.775 502.14 270.775C503.073 270.775 503.948 270.95 504.765 271.3C505.598 271.65 506.315 272.133 506.915 272.75C507.532 273.35 508.015 274.058 508.365 274.875C508.732 275.692 508.915 276.567 508.915 277.5C508.915 278 508.865 278.483 508.765 278.95H506.365ZM502.14 274.4C501.273 274.4 500.532 274.708 499.915 275.325C499.548 275.725 499.29 276.142 499.14 276.575H505.19C505.04 276.092 504.773 275.667 504.39 275.3C503.757 274.7 503.007 274.4 502.14 274.4ZM520.941 279.525V279.55C520.941 280.483 520.807 281.242 520.541 281.825C520.291 282.392 519.899 282.842 519.366 283.175C518.849 283.492 518.199 283.708 517.416 283.825C516.632 283.942 515.724 284 514.691 284H511.316V280.425H513.241H513.516H514.791C514.957 280.425 515.182 280.425 515.466 280.425C515.766 280.408 516.049 280.375 516.316 280.325C516.599 280.258 516.841 280.167 517.041 280.05C517.241 279.933 517.341 279.758 517.341 279.525C517.341 279.275 517.241 279.083 517.041 278.95C516.841 278.8 516.599 278.7 516.316 278.65C516.049 278.583 515.766 278.542 515.466 278.525C515.182 278.508 514.957 278.5 514.791 278.5H514.691H514.366C513.732 278.5 513.141 278.442 512.591 278.325C512.057 278.208 511.582 278.025 511.166 277.775C510.749 277.508 510.407 277.175 510.141 276.775C509.891 276.358 509.741 275.858 509.691 275.275L509.666 275.25V274.975C509.666 274.308 509.782 273.733 510.016 273.25C510.266 272.767 510.599 272.367 511.016 272.05C511.432 271.733 511.924 271.5 512.491 271.35C513.074 271.2 513.699 271.125 514.366 271.125H517.816V274.7H517.091H514.341C513.907 274.7 513.641 274.717 513.541 274.75C513.457 274.783 513.416 274.858 513.416 274.975C513.416 275.058 513.449 275.125 513.516 275.175C513.599 275.225 513.874 275.25 514.341 275.25H515.541H514.691C515.724 275.25 516.632 275.3 517.416 275.4C518.199 275.483 518.849 275.675 519.366 275.975C519.899 276.275 520.291 276.708 520.541 277.275C520.807 277.825 520.941 278.567 520.941 279.5V279.525ZM522.63 284V274.7H519.73V271.125H522.63V266.625H526.205V271.125H529.205V274.7H526.205V284H522.63ZM71.575 303.95H64.525C64.6583 304.233 64.8667 304.525 65.15 304.825C65.7667 305.442 66.5167 305.75 67.4 305.75C68.0833 305.733 68.7 305.525 69.25 305.125L72.35 307.1C71.75 307.783 71.025 308.325 70.175 308.725C69.3417 309.108 68.425 309.3 67.425 309.3C66.4917 309.3 65.6083 309.125 64.775 308.775C63.9583 308.425 63.2417 307.95 62.625 307.35C62.0083 306.733 61.5167 306.017 61.15 305.2C60.8 304.383 60.625 303.508 60.625 302.575C60.625 301.642 60.8 300.767 61.15 299.95C61.5 299.117 61.975 298.392 62.575 297.775C63.175 297.158 63.8833 296.675 64.7 296.325C65.5167 295.958 66.4 295.775 67.35 295.775C68.2833 295.775 69.1583 295.95 69.975 296.3C70.8083 296.65 71.525 297.133 72.125 297.75C72.7417 298.35 73.225 299.058 73.575 299.875C73.9417 300.692 74.125 301.567 74.125 302.5C74.125 303 74.075 303.483 73.975 303.95H71.575ZM67.35 299.4C66.4833 299.4 65.7417 299.708 65.125 300.325C64.7583 300.725 64.5 301.142 64.35 301.575H70.4C70.25 301.092 69.9833 300.667 69.6 300.3C68.9667 299.7 68.2167 299.4 67.35 299.4ZM78.6508 309H75.0758V291.625H78.6508V309ZM90.74 303.95H83.69C83.8234 304.233 84.0317 304.525 84.315 304.825C84.9317 305.442 85.6817 305.75 86.565 305.75C87.2484 305.733 87.865 305.525 88.415 305.125L91.515 307.1C90.915 307.783 90.19 308.325 89.34 308.725C88.5067 309.108 87.59 309.3 86.59 309.3C85.6567 309.3 84.7734 309.125 83.94 308.775C83.1234 308.425 82.4067 307.95 81.79 307.35C81.1734 306.733 80.6817 306.017 80.315 305.2C79.965 304.383 79.79 303.508 79.79 302.575C79.79 301.642 79.965 300.767 80.315 299.95C80.665 299.117 81.14 298.392 81.74 297.775C82.34 297.158 83.0484 296.675 83.865 296.325C84.6817 295.958 85.565 295.775 86.515 295.775C87.4484 295.775 88.3234 295.95 89.14 296.3C89.9734 296.65 90.69 297.133 91.29 297.75C91.9067 298.35 92.39 299.058 92.74 299.875C93.1067 300.692 93.29 301.567 93.29 302.5C93.29 303 93.24 303.483 93.14 303.95H90.74ZM86.515 299.4C85.6484 299.4 84.9067 299.708 84.29 300.325C83.9234 300.725 83.665 301.142 83.515 301.575H89.565C89.415 301.092 89.1484 300.667 88.765 300.3C88.1317 299.7 87.3817 299.4 86.515 299.4ZM99.916 299.75C99.016 299.75 98.2577 300.058 97.641 300.675C97.341 300.992 97.1077 301.308 96.941 301.625C96.791 301.925 96.716 302.217 96.716 302.5C96.716 302.867 96.7993 303.225 96.966 303.575C97.1327 303.908 97.366 304.225 97.666 304.525C98.2827 305.142 99.0327 305.45 99.916 305.45H102.616V309H99.916C98.9993 309 98.1243 308.825 97.291 308.475C96.4743 308.125 95.7577 307.65 95.141 307.05C94.5243 306.433 94.0327 305.717 93.666 304.9C93.316 304.083 93.141 303.308 93.141 302.575C93.141 301.875 93.3077 301.117 93.641 300.3C93.991 299.467 94.466 298.75 95.066 298.15C95.6827 297.533 96.3993 297.042 97.216 296.675C98.0493 296.308 98.9493 296.125 99.916 296.125H102.616V299.75H99.916ZM106.785 309V299.7H103.885V296.125H106.785V291.625H110.36V296.125H113.36V299.7H110.36V309H106.785ZM121.857 299.4C120.74 299.417 119.824 299.717 119.107 300.3C118.407 300.867 118.032 301.567 117.982 302.4V309H114.407V296.125H117.982V297.1C118.315 296.65 118.79 296.317 119.407 296.1C120.024 295.883 120.84 295.775 121.857 295.775V299.4ZM129.554 295.775C130.487 295.775 131.362 295.95 132.179 296.3C133.012 296.65 133.729 297.133 134.329 297.75C134.945 298.35 135.429 299.058 135.779 299.875C136.145 300.692 136.329 301.567 136.329 302.5C136.329 303.433 136.154 304.317 135.804 305.15C135.47 305.967 134.995 306.683 134.379 307.3C133.779 307.9 133.07 308.383 132.254 308.75C131.437 309.117 130.562 309.3 129.629 309.3C128.695 309.3 127.812 309.125 126.979 308.775C126.162 308.425 125.445 307.95 124.829 307.35C124.212 306.733 123.72 306.017 123.354 305.2C123.004 304.383 122.829 303.508 122.829 302.575C122.829 301.642 122.995 300.767 123.329 299.95C123.679 299.117 124.154 298.4 124.754 297.8C125.37 297.183 126.087 296.692 126.904 296.325C127.737 295.958 128.62 295.775 129.554 295.775ZM131.829 304.8C132.445 304.183 132.754 303.433 132.754 302.55C132.754 302.117 132.67 301.708 132.504 301.325C132.337 300.942 132.104 300.6 131.804 300.3C131.17 299.7 130.42 299.4 129.554 299.4C128.687 299.4 127.945 299.708 127.329 300.325C126.712 300.975 126.404 301.725 126.404 302.575C126.404 303.442 126.72 304.192 127.354 304.825C127.97 305.442 128.72 305.75 129.604 305.75C130.037 305.733 130.445 305.65 130.829 305.5C131.212 305.333 131.545 305.1 131.829 304.8ZM147.232 303V302.5C147.232 302.083 147.148 301.692 146.982 301.325C146.815 300.942 146.582 300.608 146.282 300.325C145.998 300.042 145.665 299.817 145.282 299.65C144.898 299.483 144.49 299.4 144.057 299.4C143.64 299.4 143.24 299.483 142.857 299.65C142.49 299.8 142.165 300.017 141.882 300.3C141.598 300.567 141.365 300.883 141.182 301.25C141.015 301.6 140.923 301.983 140.907 302.4V309H137.332V296.125H140.907V297.1C141.24 296.65 141.698 296.317 142.282 296.1C142.882 295.883 143.473 295.775 144.057 295.775C144.99 295.775 145.865 295.95 146.682 296.3C147.498 296.65 148.215 297.133 148.832 297.75C149.448 298.35 149.932 299.058 150.282 299.875C150.632 300.692 150.807 301.567 150.807 302.5V309H147.232V308.525V303ZM155.457 309H151.882V296.125H155.457V309ZM151.807 293.475C151.807 292.942 151.982 292.5 152.332 292.15C152.699 291.8 153.149 291.625 153.682 291.625C154.216 291.625 154.657 291.8 155.007 292.15C155.357 292.5 155.532 292.942 155.532 293.475C155.532 294.008 155.357 294.458 155.007 294.825C154.657 295.175 154.216 295.35 153.682 295.35C153.149 295.35 152.699 295.175 152.332 294.825C151.982 294.458 151.807 294.008 151.807 293.475ZM163.246 299.75C162.346 299.75 161.588 300.058 160.971 300.675C160.671 300.992 160.438 301.308 160.271 301.625C160.121 301.925 160.046 302.217 160.046 302.5C160.046 302.867 160.129 303.225 160.296 303.575C160.463 303.908 160.696 304.225 160.996 304.525C161.613 305.142 162.363 305.45 163.246 305.45H165.946V309H163.246C162.329 309 161.454 308.825 160.621 308.475C159.804 308.125 159.088 307.65 158.471 307.05C157.854 306.433 157.363 305.717 156.996 304.9C156.646 304.083 156.471 303.308 156.471 302.575C156.471 301.875 156.638 301.117 156.971 300.3C157.321 299.467 157.796 298.75 158.396 298.15C159.013 297.533 159.729 297.042 160.546 296.675C161.379 296.308 162.279 296.125 163.246 296.125H165.946V299.75H163.246ZM178.265 304.525V304.55C178.265 305.483 178.132 306.242 177.865 306.825C177.615 307.392 177.223 307.842 176.69 308.175C176.173 308.492 175.523 308.708 174.74 308.825C173.957 308.942 173.048 309 172.015 309H168.64V305.425H170.565H170.84H172.115C172.282 305.425 172.507 305.425 172.79 305.425C173.09 305.408 173.373 305.375 173.64 305.325C173.923 305.258 174.165 305.167 174.365 305.05C174.565 304.933 174.665 304.758 174.665 304.525C174.665 304.275 174.565 304.083 174.365 303.95C174.165 303.8 173.923 303.7 173.64 303.65C173.373 303.583 173.09 303.542 172.79 303.525C172.507 303.508 172.282 303.5 172.115 303.5H172.015H171.69C171.057 303.5 170.465 303.442 169.915 303.325C169.382 303.208 168.907 303.025 168.49 302.775C168.073 302.508 167.732 302.175 167.465 301.775C167.215 301.358 167.065 300.858 167.015 300.275L166.99 300.25V299.975C166.99 299.308 167.107 298.733 167.34 298.25C167.59 297.767 167.923 297.367 168.34 297.05C168.757 296.733 169.248 296.5 169.815 296.35C170.398 296.2 171.023 296.125 171.69 296.125H175.14V299.7H174.415H171.665C171.232 299.7 170.965 299.717 170.865 299.75C170.782 299.783 170.74 299.858 170.74 299.975C170.74 300.058 170.773 300.125 170.84 300.175C170.923 300.225 171.198 300.25 171.665 300.25H172.865H172.015C173.048 300.25 173.957 300.3 174.74 300.4C175.523 300.483 176.173 300.675 176.69 300.975C177.223 301.275 177.615 301.708 177.865 302.275C178.132 302.825 178.265 303.567 178.265 304.5V304.525ZM198.871 304.525V304.55C198.871 305.483 198.737 306.242 198.471 306.825C198.221 307.392 197.829 307.842 197.296 308.175C196.779 308.492 196.129 308.708 195.346 308.825C194.562 308.942 193.654 309 192.621 309H189.246V305.425H191.171H191.446H192.721C192.887 305.425 193.112 305.425 193.396 305.425C193.696 305.408 193.979 305.375 194.246 305.325C194.529 305.258 194.771 305.167 194.971 305.05C195.171 304.933 195.271 304.758 195.271 304.525C195.271 304.275 195.171 304.083 194.971 303.95C194.771 303.8 194.529 303.7 194.246 303.65C193.979 303.583 193.696 303.542 193.396 303.525C193.112 303.508 192.887 303.5 192.721 303.5H192.621H192.296C191.662 303.5 191.071 303.442 190.521 303.325C189.987 303.208 189.512 303.025 189.096 302.775C188.679 302.508 188.337 302.175 188.071 301.775C187.821 301.358 187.671 300.858 187.621 300.275L187.596 300.25V299.975C187.596 299.308 187.712 298.733 187.946 298.25C188.196 297.767 188.529 297.367 188.946 297.05C189.362 296.733 189.854 296.5 190.421 296.35C191.004 296.2 191.629 296.125 192.296 296.125H195.746V299.7H195.021H192.271C191.837 299.7 191.571 299.717 191.471 299.75C191.387 299.783 191.346 299.858 191.346 299.975C191.346 300.058 191.379 300.125 191.446 300.175C191.529 300.225 191.804 300.25 192.271 300.25H193.471H192.621C193.654 300.25 194.562 300.3 195.346 300.4C196.129 300.483 196.779 300.675 197.296 300.975C197.829 301.275 198.221 301.708 198.471 302.275C198.737 302.825 198.871 303.567 198.871 304.5V304.525ZM200.559 309V299.7H197.659V296.125H200.559V291.625H204.134V296.125H207.134V299.7H204.134V309H200.559ZM214.856 295.775C215.79 295.775 216.665 295.95 217.481 296.3C218.315 296.65 219.031 297.133 219.631 297.75C220.248 298.35 220.731 299.058 221.081 299.875C221.448 300.692 221.631 301.567 221.631 302.5C221.631 303.433 221.456 304.317 221.106 305.15C220.773 305.967 220.298 306.683 219.681 307.3C219.081 307.9 218.373 308.383 217.556 308.75C216.74 309.117 215.865 309.3 214.931 309.3C213.998 309.3 213.115 309.125 212.281 308.775C211.465 308.425 210.748 307.95 210.131 307.35C209.515 306.733 209.023 306.017 208.656 305.2C208.306 304.383 208.131 303.508 208.131 302.575C208.131 301.642 208.298 300.767 208.631 299.95C208.981 299.117 209.456 298.4 210.056 297.8C210.673 297.183 211.39 296.692 212.206 296.325C213.04 295.958 213.923 295.775 214.856 295.775ZM217.131 304.8C217.748 304.183 218.056 303.433 218.056 302.55C218.056 302.117 217.973 301.708 217.806 301.325C217.64 300.942 217.406 300.6 217.106 300.3C216.473 299.7 215.723 299.4 214.856 299.4C213.99 299.4 213.248 299.708 212.631 300.325C212.015 300.975 211.706 301.725 211.706 302.575C211.706 303.442 212.023 304.192 212.656 304.825C213.273 305.442 214.023 305.75 214.906 305.75C215.34 305.733 215.748 305.65 216.131 305.5C216.515 305.333 216.848 305.1 217.131 304.8ZM230.084 299.4C228.968 299.417 228.051 299.717 227.334 300.3C226.634 300.867 226.259 301.567 226.209 302.4V309H222.634V296.125H226.209V297.1C226.543 296.65 227.018 296.317 227.634 296.1C228.251 295.883 229.068 295.775 230.084 295.775V299.4ZM242.156 303.95H235.106C235.239 304.233 235.448 304.525 235.731 304.825C236.348 305.442 237.098 305.75 237.981 305.75C238.664 305.733 239.281 305.525 239.831 305.125L242.931 307.1C242.331 307.783 241.606 308.325 240.756 308.725C239.923 309.108 239.006 309.3 238.006 309.3C237.073 309.3 236.189 309.125 235.356 308.775C234.539 308.425 233.823 307.95 233.206 307.35C232.589 306.733 232.098 306.017 231.731 305.2C231.381 304.383 231.206 303.508 231.206 302.575C231.206 301.642 231.381 300.767 231.731 299.95C232.081 299.117 232.556 298.392 233.156 297.775C233.756 297.158 234.464 296.675 235.281 296.325C236.098 295.958 236.981 295.775 237.931 295.775C238.864 295.775 239.739 295.95 240.556 296.3C241.389 296.65 242.106 297.133 242.706 297.75C243.323 298.35 243.806 299.058 244.156 299.875C244.523 300.692 244.706 301.567 244.706 302.5C244.706 303 244.656 303.483 244.556 303.95H242.156ZM237.931 299.4C237.064 299.4 236.323 299.708 235.706 300.325C235.339 300.725 235.081 301.142 234.931 301.575H240.981C240.831 301.092 240.564 300.667 240.181 300.3C239.548 299.7 238.798 299.4 237.931 299.4Z" fill="white"/>
</g>
<defs>
<clipPath id="clip0_2864_44">
<rect width="800" height="600" fill="white"/>
</clipPath>
</defs>
</svg>
